<?xml version="1.0" encoding="UTF-8" standalone="no"?>
<!-- Created with Inkscape (http://www.inkscape.org/) -->

<svg
   version="1.1"
   id="svg3803"
   width="880"
   height="880"
   viewBox="0 0 880 880"
   sodipodi:docname="wine-cup-publicdomainvectors.org.svg"
   inkscape:version="1.2 (dc2aedaf03, 2022-05-15)"
   xmlns:inkscape="http://www.inkscape.org/namespaces/inkscape"
   xmlns:sodipodi="http://sodipodi.sourceforge.net/DTD/sodipodi-0.dtd"
   xmlns="http://www.w3.org/2000/svg"
   xmlns:svg="http://www.w3.org/2000/svg">
  <defs
     id="defs3807">
    <clipPath
       clipPathUnits="userSpaceOnUse"
       id="clipPath3819">
      <path
         d="M 0,660 H 660 V 0 H 0 Z"
         id="path3817" />
    </clipPath>
  </defs>
  <sodipodi:namedview
     id="namedview3805"
     pagecolor="#ffffff"
     bordercolor="#000000"
     borderopacity="0.25"
     inkscape:showpageshadow="2"
     inkscape:pageopacity="0.0"
     inkscape:pagecheckerboard="0"
     inkscape:deskcolor="#d1d1d1"
     showgrid="false"
     inkscape:zoom="0.95113636"
     inkscape:cx="441.05137"
     inkscape:cy="440.52569"
     inkscape:window-width="1920"
     inkscape:window-height="1017"
     inkscape:window-x="-8"
     inkscape:window-y="-8"
     inkscape:window-maximized="1"
     inkscape:current-layer="g3811">
    <inkscape:page
       x="0"
       y="0"
       id="page3809"
       width="880"
       height="880" />
  </sodipodi:namedview>
  <g
     id="g3811"
     inkscape:groupmode="layer"
     inkscape:label="Page 1"
     transform="matrix(1.3333333,0,0,-1.3333333,0,880)">
    <g
       id="g3813">
      <g
         id="g3815"
         clip-path="url(#clipPath3819)">
        <g
           id="g3821"
           transform="translate(338.0576,96.6113)">
          <path
             d="m 0,0 c 119.737,0 217.395,44.559 217.395,99.191 0,54.633 -97.658,99.192 -217.395,99.192 -119.735,0 -217.393,-44.559 -217.393,-99.192 C -217.393,44.559 -119.735,0 0,0"
             style="fill:#e6e6e6;fill-opacity:1;fill-rule:evenodd;stroke:none"
             id="path3823" />
        </g>
        <g
           id="g3825"
           transform="translate(438.876,228.4795)">
          <path
             d="m 0,0 c 15.42,-11.74 24.397,-25.81 24.397,-40.936 0,-41.078 -66.199,-74.378 -147.86,-74.378 -81.659,0 -147.858,33.3 -147.858,74.378 0,21.102 17.472,40.153 45.534,53.69 25.823,0.18 43.629,12.836 57.031,34.288 h 29.066 32.454 29.066 C -70.133,23.567 -55.389,13.552 -33.992,12.449 -21.123,11.788 -10.252,7.806 0,0"
             style="fill:#ffbb00;fill-opacity:1;fill-rule:evenodd;stroke:none"
             id="path3827" />
        </g>
        <g
           id="g3829"
           transform="translate(438.876,228.4795)">
          <path
             d="m 0,0 c 15.42,-11.74 24.397,-25.81 24.397,-40.936 0,-41.078 -66.199,-74.378 -147.86,-74.378 -40.555,0 -77.292,8.214 -104.005,21.516 110.443,-23.102 181.141,-1.625 210.033,66.739 -46.006,2.995 -63.593,29.824 -75.355,61.54 l -5.529,12.561 H -78.17 C -70.133,23.567 -55.389,13.552 -33.992,12.449 -21.123,11.788 -10.252,7.806 0,0"
             style="fill:#f5ac00;fill-opacity:1;fill-rule:evenodd;stroke:none"
             id="path3831" />
        </g>
        <g
           id="g3833"
           transform="translate(315.415,254.3877)">
          <path
             d="m 0,0 c 32.551,0 59.101,26.55 59.101,59.103 0,32.55 -26.55,59.1 -59.101,59.1 -32.553,0 -59.103,-26.55 -59.103,-59.1 C -59.103,26.55 -32.553,0 0,0"
             style="fill:#e39400;fill-opacity:1;fill-rule:evenodd;stroke:none"
             id="path3835" />
        </g>
        <g
           id="g3837"
           transform="translate(315.4131,372.5908)">
          <path
             d="m 0,0 c 32.642,0 59.103,-26.461 59.103,-59.101 0,-32.641 -26.461,-59.102 -59.103,-59.102 12.293,4.619 22.225,11.221 27.455,21.778 2.896,5.844 2.665,12.216 -0.643,17.835 -3.309,5.622 -8.77,8.914 -15.286,9.216 -26.383,1.227 -48.928,9.447 -69.655,20.983 v 0.008 l 20.038,34.465 C -27.805,-5.235 -14.515,0 0,0"
             style="fill:#c47f00;fill-opacity:1;fill-rule:evenodd;stroke:none"
             id="path3839" />
        </g>
        <g
           id="g3841"
           transform="translate(498.4316,521.4873)">
          <path
             d="m 0,0 c 0,-114.874 -81.939,-207.997 -183.018,-207.997 -101.079,0 -183.018,93.123 -183.018,207.997 z"
             style="fill:#f5ac00;fill-opacity:1;fill-rule:evenodd;stroke:none"
             id="path3843" />
        </g>
        <g
           id="g3845"
           transform="translate(498.4316,521.4873)">
          <path
             d="m 0,0 c 0,-114.874 -81.939,-207.997 -183.018,-207.997 -26.688,0 -52.041,6.495 -74.903,18.166 58.564,-17.34 123.421,6.603 151.037,30.741 36.088,31.545 42.877,51.454 -17.257,37.957 -88.009,-19.754 -160.621,8.421 -210.4,65.768 L -132.964,0 Z"
             style="fill:#e39400;fill-opacity:1;fill-rule:evenodd;stroke:none"
             id="path3847" />
        </g>
        <g
           id="g3849"
           transform="translate(315.415,422.8008)">
          <path
             d="m 0,0 c 100.801,0 183.018,44.332 183.018,98.686 0,54.355 -82.217,98.687 -183.018,98.687 -100.803,0 -183.02,-44.332 -183.02,-98.687 C -183.02,44.332 -100.803,0 0,0"
             style="fill:#ffcc00;fill-opacity:1;fill-rule:evenodd;stroke:none"
             id="path3851" />
        </g>
        <g
           id="g3853"
           transform="translate(315.415,447.1084)">
          <path
             d="m 0,0 c 81.436,0 147.858,33.412 147.858,74.379 0,40.967 -66.421,74.38 -147.858,74.38 -81.438,0 -147.859,-33.413 -147.859,-74.38 C -147.859,33.412 -81.438,0 0,0"
             style="fill:#e39400;fill-opacity:1;fill-rule:evenodd;stroke:none"
             id="path3855" />
        </g>
        <g
           id="g3857"
           transform="translate(410.415,578.4775)">
          <path
             d="m 0,0 c 32.312,-13.643 52.858,-34.108 52.858,-56.99 0,-23.489 -21.652,-44.432 -55.458,-58.063 C 39.74,-96.534 51.724,-46.428 0,0"
             style="fill:#f59f00;fill-opacity:1;fill-rule:evenodd;stroke:none"
             id="path3859" />
        </g>
        <g
           id="g3861"
           transform="translate(315.4131,595.8672)">
          <path
             d="m 0,0 c 11.617,0 22.919,-0.677 33.764,-1.95 -56.782,-35.132 -87.437,-79.051 -48.286,-146.451 -74.843,3.671 -133.335,35.409 -133.335,74.021 C -147.857,-33.302 -81.659,0 0,0"
             style="fill:#cc8500;fill-opacity:1;fill-rule:evenodd;stroke:none"
             id="path3863" />
        </g>
        <g
           id="g3865"
           transform="translate(183.8789,487.4902)">
          <path
             d="m 0,0 c -10.43,10.189 -16.323,21.746 -16.323,33.997 0,40.542 64.478,73.504 144.664,74.359 C 40.99,88.931 -17.643,49.21 0,0"
             style="fill:#ba7900;fill-opacity:1;fill-rule:evenodd;stroke:none"
             id="path3867" />
        </g>
        <g
           id="g3869"
           transform="translate(159.5059,420.7812)">
          <path
             d="m 0,0 c -8.379,25.421 10.28,17.735 23.046,4.586 42.242,-45.662 41.466,-47.27 104.715,-51.362 30.304,-1.961 39.963,1.063 68.124,10.761 30.975,10.677 38.234,-5.729 11.507,-25.77 -56.719,-41.013 -131.791,-33.06 -180.094,17.329 -0.614,0.64 -1.231,1.277 -1.847,1.916 C 15.101,-31.525 8.112,-20.863 2.53,-6.823 Z"
             style="fill:#ffbb00;fill-opacity:1;fill-rule:evenodd;stroke:none"
             id="path3871" />
        </g>
        <g
           id="g3873"
           transform="translate(329.4043,365.291)">
          <path
             d="m 0,0 c 23.179,-0.653 9.634,-17.05 -9.54,-22.144 -20.298,-5.393 -65.801,-6.089 -82.01,8.509 -12.593,11.342 11.361,14.12 19.312,13.641 21.973,-1.326 27.384,-4.599 51.705,-1.794 C -13.569,-0.985 -7.045,-0.073 0,0"
             style="fill:#ffcc00;fill-opacity:1;fill-rule:evenodd;stroke:none"
             id="path3875" />
        </g>
        <g
           id="g3877"
           transform="translate(318.1543,276.0918)">
          <path
             d="m 0,0 c 10.897,-7.736 -4.505,-17.354 -16.553,-15.702 -12.754,1.749 -35.212,15.271 -35.219,32.599 -0.003,13.462 13.117,8.376 16.716,5.507 9.952,-7.93 10.815,-12.365 24.128,-17.544 C -7.114,3.377 -3.458,2.123 0,0"
             style="fill:#f5ac00;fill-opacity:1;fill-rule:evenodd;stroke:none"
             id="path3879" />
        </g>
        <g
           id="g3881"
           transform="translate(335.7832,141.6172)">
          <path
             d="m 0,0 c -10.327,-1.69 -21.329,-2.604 -32.75,-2.604 -59.461,0 -107.664,24.703 -107.664,55.175 0,14.31 10.63,27.346 28.06,37.15 -9.169,-8.895 -14.42,-19.219 -14.42,-30.235 0,-33.379 48.203,-60.436 107.662,-60.436 6.522,0 12.91,0.325 19.112,0.95"
             style="fill:#ffcc00;fill-opacity:1;fill-rule:evenodd;stroke:none"
             id="path3883" />
        </g>
        <g
           id="g3885"
           transform="translate(240.0342,222.293)">
          <path
             d="m 0,0 c 10.933,7.585 16.355,12.803 26.134,21.257 12.814,11.083 19.748,-1.079 32.995,-6.638 16.238,-6.229 44.295,-4.574 50.608,-22.837 4.029,-11.65 -9.236,-14.492 1.499,-19.795 10.578,-5.228 14.533,-12.72 12.37,-24.697 C 121.362,-65.133 108.758,-65.57 98.162,-67.661 77.53,-71.732 60.081,-70.265 39.818,-65.297 20.82,-60.515 3.926,-53.521 -11.555,-41.339 -31.845,-25.013 -15.488,-11.013 0,0"
             style="fill:#ffcc00;fill-opacity:1;fill-rule:evenodd;stroke:none"
             id="path3887" />
        </g>
        <g
           id="g3889"
           transform="translate(303.4756,196.9814)">
          <path
             d="m 0,0 c 6.746,-6.203 26.105,-25.959 6.732,-29.836 -14.047,-2.194 -40.191,2.534 -53.106,8.824 -4.892,2.383 -30.431,16.567 -32.086,21.569 -1.731,5.237 8.212,10.698 11.827,13.292 7.677,5.513 33.893,24.275 41.468,25.598 C -11.563,41.824 -14.362,19.23 -7.601,8.646 -5.493,5.347 -2.83,2.665 0,0"
             style="fill:#ffdd30;fill-opacity:1;fill-rule:evenodd;stroke:none"
             id="path3891" />
        </g>
      </g>
    </g>
  </g>
</svg>
